<?xml version="1.0" encoding="UTF-8"?>
<svg width="752pt" height="752pt" version="1.1" viewBox="0 0 752 752" xmlns="http://www.w3.org/2000/svg">
 <g fill="#f86323">
  <path d="m353.36 528.07v-312.34c0-1.9609-0.78125-3.8438-2.168-5.2305-1.3867-1.3867-3.2695-2.168-5.2344-2.168h-122.24c-4.0859 0-7.3984 3.3125-7.3984 7.3984v312.34c0 1.9609 0.77734 3.8438 2.168 5.2305 1.3867 1.3867 3.2695 2.168 5.2305 2.168h122.24c1.9648 0 3.8477-0.78125 5.2344-2.168 1.3867-1.3867 2.168-3.2695 2.168-5.2305zm-14.801-7.3984-107.44-0.003907v-297.54h107.44z"/>
  <path d="m373.12 304.59h122.17c1.9609 0 3.8438-0.77734 5.2305-2.168 1.3906-1.3867 2.168-3.2695 2.168-5.2305v-81.398c0-1.9609-0.77734-3.8438-2.168-5.2305-1.3867-1.3867-3.2695-2.168-5.2305-2.168h-122.17c-4.0898 0-7.4023 3.3125-7.4023 7.3984v81.398c0 1.9609 0.78125 3.8438 2.168 5.2305 1.3867 1.3906 3.2695 2.168 5.2344 2.168zm7.3984-81.398 107.37 0.003907v66.598l-107.37-0.003906z"/>
  <path d="m373.12 535.46h122.17c1.9609 0 3.8438-0.78125 5.2305-2.168 1.3906-1.3867 2.168-3.2695 2.168-5.2305v-203.86c0-1.9609-0.77734-3.8438-2.168-5.2305-1.3867-1.3906-3.2695-2.168-5.2305-2.168h-122.17c-4.0898 0-7.4023 3.3125-7.4023 7.3984v203.86c0 1.9609 0.78125 3.8438 2.168 5.2305 1.3867 1.3867 3.2695 2.168 5.2344 2.168zm7.3984-203.71h107.37v188.91h-107.37z"/>
  <path d="m216.91 181.17h115.43v14.801h-115.43z"/>
  <path d="m555.45 195.3h-25.605v-33.891c0-1.9609-0.77734-3.8438-2.1641-5.2344-1.3906-1.3867-3.2734-2.1641-5.2344-2.1641h-325.59c-4.0859 0-7.4023 3.3125-7.4023 7.3984v396.18c0 1.9609 0.78125 3.8438 2.168 5.2344 1.3906 1.3867 3.2695 2.1641 5.2344 2.1641h37.887v25.605c0 1.9609 0.77734 3.8438 2.168 5.2305 1.3867 1.3867 3.2695 2.168 5.2305 2.168h313.3c1.9609 0 3.8438-0.78125 5.2305-2.168s2.168-3.2695 2.168-5.2305v-387.89c0-1.9609-0.78125-3.8438-2.168-5.2305s-3.2695-2.168-5.2305-2.168zm-351.49-26.492h310.79v381.38h-310.79zm344.09 414.38h-298.8v-18.203h273.2c1.9609 0 3.8438-0.77734 5.2344-2.1641 1.3867-1.3906 2.1641-3.2734 2.1641-5.2344v-347.79h18.203z"/>
 </g>
</svg>
