<?xml version="1.0" encoding="UTF-8"?>
<svg width="752pt" height="752pt" version="1.1" viewBox="0 0 752 752" xmlns="http://www.w3.org/2000/svg">
 <defs>
  <clipPath id="a">
   <path d="m139.21 230h473.58v292h-473.58z"/>
  </clipPath>
 </defs>
 <g clip-path="url(#a)">
  <path d="m376 230.3c17.332 0 33.949 6.8828 46.203 19.137s19.137 28.875 19.137 46.203-6.8828 33.949-19.137 46.203-28.871 19.137-46.203 19.137c-17.328 0-33.945-6.8828-46.199-19.137-12.254-12.254-19.141-28.875-19.141-46.203s6.8867-33.949 19.141-46.203c12.254-12.254 28.871-19.137 46.199-19.137zm-207.19 67.336c0 13.918 5.5273 27.262 15.367 37.098 9.8398 9.8398 23.184 15.367 37.098 15.367 13.914 0 27.258-5.5273 37.098-15.367 9.8398-9.8359 15.367-23.18 15.367-37.098 0-13.914-5.5273-27.258-15.367-37.098-9.8398-9.8359-23.184-15.363-37.098-15.363-13.914 0-27.258 5.5273-37.098 15.363-9.8398 9.8398-15.367 23.184-15.367 37.098zm414.38 0c0-13.914-5.5273-27.258-15.363-37.098-9.8398-9.8359-23.184-15.363-37.098-15.363-13.914 0-27.262 5.5273-37.098 15.363-9.8398 9.8398-15.367 23.184-15.367 37.098 0 13.918 5.5273 27.262 15.367 37.098 9.8359 9.8398 23.184 15.367 37.098 15.367 13.918 0.019532 27.273-5.5 37.117-15.344s15.363-23.199 15.344-37.121zm-292.66 91.98c-13.246-13.91-36.555-25.234-69.336-25.234-53.5 0-81.988 30.043-81.988 52.465v41.809c0 5.8828 4.7695 10.656 10.656 10.656h99.598v-17.391c0-22.422 14.801-45.805 41.07-62.305zm240.27-25.234c-32.781 0-56.09 11.32-69.336 25.234 26.27 16.5 41.066 39.883 41.066 62.305v17.391h99.602c2.8242 0 5.5352-1.125 7.5352-3.1211 1.9961-2 3.1211-4.7109 3.1211-7.5352v-41.809c0-22.422-28.488-52.465-81.988-52.465zm-154.8 17.688c-72.887 0-111.73 39.883-111.73 69.852v59.199c0 5.8828 4.7695 10.656 10.656 10.656h202.16c5.8828 0 10.656-4.7734 10.656-10.656v-59.199c0-29.969-38.852-69.852-111.74-69.852z" fill="#f86323"/>
 </g>
</svg>
