<?xml version="1.0" encoding="UTF-8"?>
<svg width="752pt" height="752pt" version="1.1" viewBox="0 0 752 752" xmlns="http://www.w3.org/2000/svg">
 <g fill="#f86323">
  <path d="m557.54 315.49h-35.52l24.996-24.996c6.5781-6.5781 10.523-14.469 10.523-23.68 0-9.207-3.9453-18.414-10.523-24.992l-36.832-36.836c-13.156-13.156-35.52-13.156-48.672 0l-24.996 24.996v-35.52c0-18.418-15.785-34.203-34.203-34.203h-52.621c-18.418 0-34.203 15.785-34.203 34.203v35.52l-24.996-24.996c-13.156-13.156-35.52-13.156-48.672 0l-36.836 36.836c-13.156 13.156-13.156 35.52 0 48.672l24.996 24.996h-35.52c-18.418 0-34.203 15.785-34.203 34.203v52.621c0 18.418 15.785 34.203 34.203 34.203h35.52l-24.996 24.992c-13.156 13.156-13.156 35.52 0 48.672l36.836 36.836c13.156 13.156 35.52 13.156 48.672 0l24.996-24.996v35.52c0 18.418 15.785 34.203 34.203 34.203h52.621c18.418 0 34.203-15.785 34.203-34.203v-35.52l24.996 24.996c13.156 13.156 35.52 13.156 48.672 0l36.836-36.836c13.156-13.156 13.156-35.52 0-48.672l-24.996-24.996h35.52c18.418 0 34.203-15.785 34.203-34.203v-52.621c-0.003906-18.414-15.789-34.199-34.207-34.199zm-2.6289 84.191h-38.148c-14.469 0-26.309 7.8945-31.57 21.047-5.2617 13.156-2.6328 27.625 7.8945 36.836l27.625 27.625-34.203 34.203-27.625-27.625c-9.207-9.207-24.996-13.156-36.836-7.8945-13.156 5.2617-21.047 17.102-21.047 31.57v38.148h-47.359v-38.148c0-14.469-7.8945-26.309-21.047-31.57-13.156-5.2617-27.625-2.6328-36.836 7.8945l-27.625 27.625-34.203-34.203 27.625-27.625c9.207-9.207 13.156-24.996 7.8945-36.836-5.2617-13.156-17.102-21.047-31.57-21.047h-40.785v-47.359h38.148c14.469 0 26.309-7.8945 31.57-21.047 5.2617-13.156 2.6328-27.625-7.8945-36.836l-26.305-27.621 34.203-34.203 27.625 27.625c9.207 9.207 24.996 13.156 36.836 7.8945 13.156-5.2617 21.047-17.102 21.047-31.57v-39.469h47.359v38.148c0 14.469 7.8945 26.309 21.047 31.57 13.156 5.2617 27.625 2.6328 36.836-7.8945l27.625-27.625 34.203 34.203-27.625 27.625c-9.207 9.207-13.156 24.996-7.8945 36.836 5.2617 13.156 17.102 21.047 31.57 21.047h38.148v48.676z"/>
  <path d="m376 311.54c-35.52 0-64.461 28.941-64.461 64.461 0 35.52 28.941 64.461 64.461 64.461s64.461-28.941 64.461-64.461c0-35.52-28.941-64.461-64.461-64.461zm0 92.086c-15.785 0-27.625-11.84-27.625-27.625s11.84-27.625 27.625-27.625 27.625 11.84 27.625 27.625c0.003906 15.785-11.836 27.625-27.625 27.625z"/>
 </g>
</svg>
