<?xml version="1.0" encoding="UTF-8"?>
<svg width="752pt" height="752pt" version="1.1" viewBox="0 0 752 752" xmlns="http://www.w3.org/2000/svg">
 <defs>
  <clipPath id="c">
   <path d="m216 564h151v48.793h-151z"/>
  </clipPath>
  <clipPath id="b">
   <path d="m139.21 309h303.79v242h-303.79z"/>
  </clipPath>
  <clipPath id="a">
   <path d="m425 139.21h187.79v187.79h-187.79z"/>
  </clipPath>
 </defs>
 <g clip-path="url(#c)">
  <path d="m355.28 594.05h-17.758l-8.8789-29.598h-75.969l-8.8789 29.598h-17.762c-4.9336 0-9.8672 3.9453-9.8672 9.8672 0 5.918 3.9453 9.8672 9.8672 9.8672h130.23c4.9336 0 9.8672-3.9453 9.8672-9.8672 0-5.9219-4.9336-9.8672-10.855-9.8672z" fill="#f86323"/>
 </g>
 <g clip-path="url(#b)">
  <path d="m423.36 309.9h-265.4c-10.852 0-18.746 8.8789-18.746 18.746v203.25c0 10.852 8.8789 18.746 18.746 18.746h265.4c10.852 0 18.746-8.8789 18.746-18.746v-203.25c0-10.855-7.8945-18.746-18.746-18.746zm-132.21 229.88c-6.9062 0-12.824-5.918-12.824-12.824s5.918-12.824 12.824-12.824 12.824 5.918 12.824 12.824c-0.98437 7.8906-5.918 12.824-12.824 12.824zm126.29-39.465h-252.58v-165.75h252.58z" fill="#f86323"/>
 </g>
 <g clip-path="url(#a)">
  <path d="m435.2 139.21c-5.918 0-9.8672 3.9453-9.8672 9.8672 0 5.918 3.9453 9.8672 9.8672 9.8672 86.824 0 157.86 71.039 157.86 157.86 0 5.918 3.9453 9.8672 9.8672 9.8672 7.8945 0 9.8672-6.9062 9.8672-9.8672 0-97.676-79.918-177.59-177.59-177.59z" fill="#f86323"/>
 </g>
 <path d="m435.2 178.68c-5.918 0-9.8672 3.9453-9.8672 9.8672 0 5.918 3.9453 9.8672 9.8672 9.8672 65.117 0 118.39 53.277 118.39 118.39 0 5.918 3.9453 9.8672 9.8672 9.8672 7.8945 0 9.8672-6.9062 9.8672-9.8672 0-75.973-62.16-138.13-138.13-138.13z" fill="#f86323"/>
 <path d="m435.2 218.14c-5.918 0-9.8672 3.9453-9.8672 9.8672 0 5.918 3.9453 9.8672 9.8672 9.8672 43.41 0 78.93 35.52 78.93 78.93 0 5.918 3.9453 9.8672 9.8672 9.8672 7.8945 0 9.8672-6.9062 9.8672-9.8672 0-54.266-44.398-98.664-98.664-98.664z" fill="#f86323"/>
 <path d="m435.2 257.61c-5.918 0-9.8672 3.9453-9.8672 9.8672 0 5.918 3.9453 9.8672 9.8672 9.8672 21.707 0 40.453 17.758 40.453 40.453 0 5.918 3.9453 9.8672 9.8672 9.8672 7.8945-0.98828 9.8672-6.9062 9.8672-9.8672-0.98828-26.641-21.711-60.188-60.188-60.188z" fill="#f86323"/>
</svg>
