<?xml version="1.0" encoding="UTF-8"?>
<svg width="752pt" height="752pt" version="1.1" viewBox="0 0 752 752" xmlns="http://www.w3.org/2000/svg">
 <defs>
  <clipPath id="a">
   <path d="m139.21 139.21h473.58v473.58h-473.58z"/>
  </clipPath>
 </defs>
 <g clip-path="url(#a)">
  <path d="m557.54 178.68h-71.746c-1.8711-11.023-7.582-21.027-16.117-28.25-8.5352-7.2227-19.348-11.195-30.531-11.215h-126.29c-11.008 0.015624-21.668 3.8633-30.152 10.883-8.4805 7.0156-14.258 16.77-16.336 27.578l-23.566-23.559c-4.4805-4.3359-10.465-6.7656-16.695-6.7812s-12.227 2.3867-16.727 6.7031c-4.5039 4.4062-7.0352 10.445-7.0234 16.746 0 2.6914 0.45703 5.3594 1.3555 7.8945h-40.82c-8.4609 0-16.277 4.5117-20.508 11.84-4.2305 7.3281-4.2305 16.352 0 23.68 4.2305 7.3242 12.047 11.84 20.508 11.84h40.82c-0.89453 2.5352-1.3555 5.2031-1.3555 7.8906 0.011719 6.2734 2.5156 12.281 6.9531 16.711 4.4414 4.4297 10.453 6.918 16.727 6.918 6.2695 0 12.285-2.4883 16.723-6.918l23.609-23.602c2.0781 10.812 7.8555 20.562 16.336 27.582 8.4844 7.0195 19.145 10.867 30.152 10.883h126.29c11.184-0.023438 21.996-3.9922 30.531-11.215 8.5352-7.2227 14.246-17.227 16.117-28.25h71.746c2.0938 0 4.1016 0.83203 5.582 2.3125 1.4805 1.4766 2.3125 3.4844 2.3125 5.5781v110.5c0 2.0938-0.83203 4.1016-2.3125 5.582-1.4805 1.4805-3.4883 2.3125-5.582 2.3125h-9.5312c2.8711-7.8594 1.3672-16.648-3.9492-23.105-4.3516-4.918-10.52-7.8555-17.082-8.1406-6.5625-0.28125-12.957 2.1133-17.719 6.6406l-23.621 23.609c-2.0781-10.812-7.8516-20.566-16.336-27.586-8.4805-7.0234-19.145-10.871-30.156-10.887h-126.29c-11.18 0.023437-21.992 3.9961-30.527 11.215-8.5391 7.2227-14.246 17.23-16.117 28.254h-71.75c-14.648 0.015625-28.688 5.8438-39.047 16.203-10.355 10.355-16.184 24.398-16.203 39.047v110.5c0.019531 14.648 5.8477 28.691 16.203 39.051 10.359 10.355 24.398 16.184 39.047 16.203h9.2266c-0.88672 2.5352-1.3398 5.2031-1.332 7.8906-0.019531 6.2891 2.4688 12.324 6.9102 16.773 4.4453 4.4453 10.477 6.9414 16.766 6.9297 6.2852-0.011719 12.309-2.5273 16.734-6.9922l23.625-23.609c2.0742 10.812 7.8477 20.562 16.324 27.582 8.4805 7.0195 19.137 10.867 30.141 10.891h126.29c12.559-0.011719 24.598-5.0078 33.473-13.887 8.8789-8.8789 13.875-20.918 13.887-33.473v-31.57c-0.011718-12.559-5.0078-24.598-13.887-33.477-8.875-8.8789-20.914-13.871-33.473-13.883h-126.29c-11.012 0.015625-21.676 3.8672-30.16 10.887-8.4844 7.0195-14.258 16.777-16.336 27.59l-23.617-23.617v0.003907c-4.7578-4.5273-11.148-6.9258-17.711-6.6445s-12.727 3.2188-17.078 8.1367c-5.3242 6.457-6.8281 15.25-3.957 23.109h-9.5352c-4.3594 0-7.8906-3.5352-7.8906-7.8945v-110.5c0-4.3594 3.5312-7.8945 7.8906-7.8945h71.75c1.8711 11.023 7.5781 21.031 16.117 28.25 8.5352 7.2227 19.348 11.195 30.527 11.215h126.29c11.016-0.015625 21.676-3.8633 30.16-10.887 8.4844-7.0195 14.262-16.777 16.34-27.59l23.578 23.586-0.003906-0.003906c4.4375 4.4375 10.449 6.9375 16.727 6.9414 6.2734 0.007813 12.293-2.4766 16.738-6.9062 4.4414-4.4258 6.9492-10.438 6.9648-16.711 0-2.6914-0.46094-5.3594-1.3594-7.8945h9.25c14.648-0.019532 28.691-5.8438 39.051-16.203 10.355-10.355 16.184-24.398 16.203-39.047v-110.5c-0.019531-14.645-5.8477-28.688-16.203-39.047-10.359-10.355-24.402-16.184-39.051-16.203zm-294.37 29.203-31.574 31.574c-3.0781 3.0547-8.043 3.0547-11.121 0-1.4688-1.4648-2.293-3.4531-2.293-5.5273 0-2.0703 0.82422-4.0586 2.293-5.5234l4.6562-4.6562c2.2695-2.2539 2.957-5.6484 1.7422-8.6055s-4.0938-4.8906-7.2891-4.8906h-56.695c-4.3594 0-7.8945-3.5352-7.8945-7.8945s3.5352-7.8945 7.8945-7.8945h56.695c3.1914 0 6.0703-1.9219 7.2891-4.8711 1.2227-2.9492 0.54688-6.3438-1.7109-8.6016l-4.6562-4.6797c-1.4648-1.4766-2.2852-3.4727-2.2773-5.5508 0.007812-2.0781 0.83984-4.0703 2.3125-5.5352 3.0742-3.0508 8.0352-3.0352 11.086 0.035156l31.57 31.57h0.003906c1.4336 1.4102 2.2578 3.3281 2.2969 5.3359v0.37891c-0.050781 2.0156-0.88672 3.9297-2.3281 5.3359zm175.97 41.836h-126.29c-8.3711 0-16.402-3.3281-22.324-9.25-5.918-5.918-9.2461-13.949-9.2461-22.324v-15.398-0.38672-0.38672-15.398c0-8.375 3.3281-16.406 9.2461-22.324 5.9219-5.9219 13.953-9.25 22.324-9.25h126.29c8.375 0 16.406 3.3281 22.324 9.25 5.9219 5.918 9.25 13.949 9.25 22.324v31.57c0 8.375-3.3281 16.406-9.25 22.324-5.918 5.9219-13.949 9.25-22.324 9.25zm-126.29 252.57h126.29c8.375 0 16.406 3.3281 22.324 9.2461 5.9219 5.9219 9.25 13.953 9.25 22.328v31.57c0 8.375-3.3281 16.402-9.25 22.324-5.918 5.9219-13.949 9.2461-22.324 9.2461h-126.29c-8.3711 0-16.402-3.3242-22.324-9.2461-5.918-5.9219-9.2461-13.949-9.2461-22.324v-15.551-0.23828-0.23828-15.543c0-8.375 3.3281-16.406 9.2461-22.328 5.9219-5.918 13.953-9.2461 22.324-9.2461zm-142.07-94.715v110.5c0 6.2812 2.4961 12.305 6.9375 16.746 4.4414 4.4414 10.465 6.9336 16.742 6.9336h25.102c3.1289-0.12109 5.9023-2.0508 7.1016-4.9453 1.2031-2.8906 0.60938-6.2188-1.5156-8.5195l-4.0508-4.0586h0.003906c-3.1367-2.9102-3.6133-7.7031-1.1055-11.176 1.4375-1.6484 3.4883-2.6406 5.6719-2.7344 2.1875-0.097656 4.3164 0.71094 5.8906 2.2305l31.57 31.613h0.003906c1.4727 1.457 2.3047 3.4492 2.3047 5.5234s-0.83203 4.0664-2.3047 5.5234l-31.574 31.574c-3.0977 2.8867-7.9297 2.793-10.914-0.21484-2.9844-3.0039-3.043-7.8359-0.13672-10.914l4.6562-4.6562c2.1875-2.2852 2.8164-5.6445 1.6016-8.5625s-4.043-4.8398-7.2031-4.8984h-25.102c-10.461-0.011718-20.492-4.1719-27.891-11.57-7.3984-7.3984-11.562-17.43-11.574-27.895v-110.5c0.011718-10.465 4.1758-20.496 11.574-27.895 7.3984-7.3984 17.43-11.559 27.891-11.57h71.039v15.785h-71.039c-6.2773 0-12.301 2.4961-16.742 6.9336-4.4414 4.4414-6.9375 10.465-6.9375 16.746zm268.36 15.785h-126.29c-8.3711 0-16.402-3.3281-22.324-9.2461-5.918-5.9219-9.2461-13.953-9.2461-22.324v-31.574c0-8.3711 3.3281-16.402 9.2461-22.324 5.9219-5.9219 13.953-9.2461 22.324-9.2461h126.29c8.375 0 16.406 3.3242 22.324 9.2461 5.9219 5.9219 9.25 13.953 9.25 22.324v15.551 0.23828 0.23828 15.547c0 8.3711-3.3281 16.402-9.25 22.324-5.918 5.918-13.949 9.2461-22.324 9.2461zm157.86-78.93c-0.011718 10.461-4.1719 20.492-11.57 27.891-7.3984 7.3984-17.43 11.562-27.895 11.574h-25.098c-3.1484 0.085938-5.9531 2.0195-7.1562 4.9297-1.207 2.9102-0.58984 6.2539 1.5742 8.543l4.6875 4.6953h0.003906c2.8867 3.1016 2.7891 7.9336-0.21484 10.918-3.0039 2.9805-7.8359 3.043-10.914 0.13281l-31.57-31.613-0.003906 0.003906c-3.0078-3.0703-3.0078-7.9805 0-11.051l31.574-31.574c1.5664-1.5508 3.7109-2.3789 5.9141-2.2773 2.207 0.097657 4.2695 1.1172 5.6875 2.8086 2.4961 3.4727 2.0156 8.2656-1.1211 11.176l-4.043 4.0508c-2.1836 2.2812-2.8164 5.6367-1.6094 8.5586 1.2109 2.918 4.0312 4.8477 7.1914 4.9141h25.098c6.2812 0 12.305-2.4961 16.746-6.9375s6.9336-10.461 6.9336-16.742v-110.5c0-6.2773-2.4922-12.301-6.9336-16.742s-10.465-6.9336-16.746-6.9336h-71.035v-15.789h71.039-0.003907c10.465 0.011718 20.496 4.1758 27.895 11.574 7.3984 7.3984 11.559 17.43 11.57 27.891z" fill="#f86323"/>
 </g>
</svg>
