<?xml version="1.0" encoding="UTF-8"?>
<svg width="752pt" height="752pt" version="1.1" viewBox="0 0 752 752" xmlns="http://www.w3.org/2000/svg">
 <defs>
  <clipPath id="a">
   <path d="m139.21 152h473.58v448h-473.58z"/>
  </clipPath>
 </defs>
 <g clip-path="url(#a)">
  <path d="m559.32 257.51v-104.61l-290.07 73.023h-130.05v198.29h33.531l41.391 174.89h122.66l-51.336-170.11 273.87 68.953v-105.32c20.441-4.8242 37.602-18.648 46.668-37.594 9.0664-18.945 9.0664-40.98 0-59.926-9.0664-18.945-26.227-32.77-46.668-37.594zm-396.39 142.97v-150.79h93.199v150.79zm396.39-32.629v-85.574c11.695 4.3672 21.094 13.336 26.008 24.812 4.9141 11.48 4.9141 24.469 0 35.949-4.9141 11.477-14.312 20.445-26.008 24.812z" fill="#f86323"/>
 </g>
</svg>
