<?xml version="1.0" encoding="UTF-8"?>
<svg width="752pt" height="752pt" version="1.1" viewBox="0 0 752 752" xmlns="http://www.w3.org/2000/svg">
 <defs>
  <clipPath id="b">
   <path d="m139.21 232h380.79v380.79h-380.79z"/>
  </clipPath>
  <clipPath id="a">
   <path d="m321 139.21h291.79v291.79h-291.79z"/>
  </clipPath>
 </defs>
 <g clip-path="url(#b)">
  <path d="m468.5 330.76c22.758 34.469 31.91 76.16 25.684 117-6.2305 40.832-27.395 77.898-59.395 104.02-32.004 26.117-72.559 39.422-113.81 37.34-41.254-2.0859-80.262-19.41-109.47-48.617-29.211-29.207-46.531-68.219-48.617-109.47-2.082-41.25 11.227-81.809 37.34-113.81 26.117-32 63.184-53.168 104.02-59.395 40.832-6.2305 82.523 2.9258 116.99 25.684l17.184-17.184c-39.066-27.254-86.926-38.891-134.15-32.609-47.219 6.2812-90.375 30.016-120.96 66.535-30.586 36.52-46.391 83.168-44.289 130.76 2.0977 47.59 21.945 92.668 55.629 126.35 33.684 33.684 78.762 53.531 126.35 55.629s94.242-13.703 130.76-44.293c36.52-30.586 60.254-73.742 66.535-120.96 6.2773-47.219-5.3555-95.078-32.609-134.15z" fill="#f86323"/>
 </g>
 <path d="m329.59 327.75c13.449-0.015625 26.75 2.8516 39 8.4023l17.758-17.758c-33.676-18.391-74.168-19.355-108.68-2.5898-34.512 16.766-58.785 49.188-65.148 87.027-6.3672 37.84 5.9688 76.422 33.098 103.55 27.133 27.129 65.715 39.465 103.55 33.102 37.836-6.3633 70.262-30.637 87.027-65.152s15.801-75.004-2.5898-108.68l-17.805 17.805c5.5898 12.227 8.4727 25.512 8.4492 38.953 0 25.105-9.9727 49.184-27.727 66.934-17.75 17.754-41.828 27.727-66.934 27.727-25.105 0-49.18-9.9727-66.934-27.727-17.75-17.75-27.723-41.828-27.723-66.934 0-25.105 9.9727-49.18 27.723-66.934 17.754-17.754 41.828-27.727 66.934-27.727z" fill="#f86323"/>
 <g clip-path="url(#a)">
  <path d="m600.57 199.84c-9.5039-6.4375-18.426-13.695-26.664-21.688-5.4648-5.5938-10.574-11.523-15.297-17.762-3.9297-5.2109-6.3945-8.9023-6.4414-8.9492l-8.0508-12.219-73.168 73.168v51.809l-149.7 149.7 1.707 15.156 15.203 1.7031 149.7-149.7 51.762 0.003906 73.168-73.168z" fill="#f86323"/>
 </g>
</svg>
