<?xml version="1.0" encoding="UTF-8"?>
<svg width="752pt" height="752pt" version="1.1" viewBox="0 0 752 752" xmlns="http://www.w3.org/2000/svg">
 <g fill="#f86323">
  <path d="m456.37 409.73c-33.008 20.809-55.25 35.879-60.992 40.898-20.809 16.504-54.535 17.223-80.367-11.48 0 0-11.48-12.914-10.047-32.289 1.4336-19.375 13.633-38.746 37.312-58.121 15.785-12.914 40.184-25.832 60.273-44.488 9.3281 5.0234 18.656 10.762 26.551 18.656 22.246 22.246 33.008 54.535 27.27 86.824z"/>
  <path d="m599.88 277.7c1.4336 2.8711 2.1523 7.8945 1.4336 12.914-2.1523 8.6094-8.6094 16.504-20.09 22.242-1.4336 1.4336-5.0234 5.0234-9.3281 10.047-14.352 19.375-29.418 34.441-44.488 45.922-4.3047 2.8711-8.6094 5.7422-12.199 8.6094-3.5859-35.879-19.375-69.602-45.207-95.434-10.047-10.047-21.527-18.656-33.727-25.832 3.5859-10.047 17.223-45.922 52.383-66.016 10.047-5.7422 17.223-12.199 22.961-20.09 0.003907 0.003906 0.72266-1.4336 0.72266-2.1484 8.6094-15.07 28.703-21.527 44.488-21.527 10.047 0 17.223 2.8711 22.242 9.3281 5.0234 5.0234 6.457 12.914 5.7422 22.242 5.7422 2.8711 13.633 8.6094 15.785 17.223 1.4336 6.457 0 13.633-5.0234 20.809 8.6094 9.3281 12.199 20.809 5.7422 30.855 5.7383 7.8906 6.457 18.656-1.4375 30.855z"/>
  <path d="m297.07 221.01c-23.68 20.09-46.641 2.1523-62.426 18.656l-0.71875 0.71875c-6.457 3.5859-6.457 20.09-7.8945 30.137-2.8711 17.938-12.199 31.57-29.418 40.184-5.0234 2.8711-10.047 4.3047-15.785 4.3047-16.504 0-34.441-13.633-37.312-34.441-4.3047-27.27 15.07-33.727 27.266-60.277l5.7422-14.352c0-0.71875 0.71875-1.4336 0.71875-2.1523 5.0234-16.504 12.195-30.137 22.242-40.898 28.703-31.57 68.168-23.68 99.02 4.3047 15.789 14.352 17.941 37.312-1.4336 53.816z"/>
  <path d="m594.85 530.99c-15.785 12.199-33.727 7.1758-42.336 7.1758-10.047 0-15.07 5.7422-16.504 6.457-5.0234 0-7.1758 20.809-7.8945 26.551-3.5859 15.785-12.914 27.984-29.418 35.16-32.289 15.785-66.016-31.57-35.879-61.711 15.07-15.07 19.375-30.137 22.242-34.441 0-0.71875 0.71875-0.71875 0.71875-1.4336 15.07-38.031 43.77-62.426 81.801-47.359 11.48 4.3047 21.527 11.48 30.855 20.809 15.07 13.633 15.07 34.441-3.5859 48.793z"/>
  <path d="m459.24 292.77c-55.25-55.25-144.95-55.25-200.2 0-55.254 55.25-55.254 144.95 0 200.2 55.25 55.25 144.95 55.25 200.2 0s55.25-144.95 0-200.2zm-20.094 180.11c-44.488 44.488-116.24 44.488-160.01 0-43.77-43.77-44.488-115.52 0-160.01 38.746-38.746 96.152-43.055 138.49-16.504 0 0 0.71875 0.71875 1.4336 0.71875 7.1758 4.3047 14.352 10.047 20.09 15.785 44.488 43.77 44.488 116.24 0 160.01z"/>
  <path d="m264.78 531.71-7.1758-7.1758 7.8945-7.8945c-5.7422-4.3047-10.762-8.6094-15.785-14.352-5.0234-5.7422-10.047-10.762-14.352-16.504l-7.8945 7.8945-7.1758-7.1758c-2.8711-2.8711-7.1758-2.8711-10.047 0s-2.8711 7.1758 0 10.047l2.1523 2.1523-60.992 60.992c-11.48 10.762-11.48 28.703 0 40.184 10.762 10.762 28.703 11.48 40.184 0l60.992-60.992 2.1523 2.1523c2.8711 2.8711 7.1758 2.8711 10.047 0 2.8711-1.4375 2.8711-6.4609 0-9.3281z"/>
 </g>
</svg>
